<svg xmlns="http://www.w3.org/2000/svg" version="1.1" xmlns:xlink="http://www.w3.org/1999/xlink" xmlns:svgjs="http://svgjs.dev/svgjs" width="1280" height="800" preserveAspectRatio="none" viewBox="0 0 1280 800"><g mask="url(&quot;#SvgjsMask1020&quot;)" fill="none"><rect width="1280" height="800" x="0" y="0" fill="rgba(24, 175, 230, 1)"></rect><path d="M181.426,369.661C251.091,371.374,322.364,343.239,355.69,282.038C387.906,222.876,362.321,154.714,330.925,95.113C296.375,29.525,255.381,-43.673,181.426,-48.778C101.215,-54.315,27.054,-0.356,-8.676,71.671C-41.123,137.08,-17.87,212.263,21.399,273.819C57.241,330.002,114.804,368.023,181.426,369.661" fill="rgba(173, 208, 63, 0.81)" class="triangle-float3"></path><path d="M-70.83 -35.84 a34.99 34.99 0 1 0 69.98 0 a34.99 34.99 0 1 0 -69.98 0z" fill="rgba(173, 208, 63, 0.81)" class="triangle-float3"></path><path d="M-129.79 23.12 a152.91 152.91 0 1 0 305.82 0 a152.91 152.91 0 1 0 -305.82 0z" fill="rgba(173, 208, 63, 0.81)" class="triangle-float3"></path><path d="M1332.025,438.074C1419.816,442.281,1514.577,418.909,1558.941,343.035C1603.614,266.633,1580.824,170.35,1531.555,96.827C1487.822,31.565,1410.552,6.691,1332.025,4.413C1248.185,1.981,1154.708,12.818,1111.388,84.64C1067.1,158.066,1094.486,250.214,1139.894,322.952C1182.269,390.832,1252.096,434.243,1332.025,438.074" fill="rgba(173, 208, 63, 0.81)" class="triangle-float2"></path><path d="M1266.39,290.097C1318.492,288.527,1365.239,263.486,1394.565,220.392C1428.778,170.117,1456.476,106.838,1427.474,53.387C1397.601,-1.67,1329.019,-16.954,1266.39,-15.838C1206.058,-14.763,1145.317,6.812,1114.954,58.958C1084.423,111.392,1090.844,177.791,1124.095,228.543C1154.45,274.874,1211.026,291.766,1266.39,290.097" fill="rgba(173, 208, 63, 0.81)" class="triangle-float1"></path><path d="M1222.986,224.025C1266.157,223.962,1306.21,200.884,1327.457,163.303C1348.382,126.292,1343.247,82.531,1324.58,44.331C1302.782,-0.276,1272.633,-50.183,1222.986,-50.488C1173.068,-50.795,1141.185,-1.751,1119.205,43.068C1100.242,81.734,1096.564,126.248,1117.989,163.606C1139.52,201.149,1179.707,224.088,1222.986,224.025" fill="rgba(173, 208, 63, 0.81)" class="triangle-float2"></path><path d="M49.02,788.519C82.942,788.17,111.015,763.946,126.652,733.841C141.065,706.093,138.713,673.34,122.836,646.403C107.221,619.911,79.771,602.063,49.02,602.131C18.382,602.199,-8.401,620.497,-24.229,646.73C-40.661,673.964,-46.027,707.208,-31.428,735.467C-15.626,766.054,14.594,788.873,49.02,788.519" fill="rgba(173, 208, 63, 0.81)" class="triangle-float2"></path><path d="M95.643,844.575C136.934,843.548,177.065,830.173,200.688,796.291C228.446,756.479,246.134,704.786,222.764,662.25C198.786,618.609,145.437,605.305,95.643,605.104C45.413,604.901,-7.994,617.808,-33.269,661.216C-58.665,704.832,-47.885,760.462,-18.857,801.75C6.262,837.479,51.981,845.661,95.643,844.575" fill="rgba(173, 208, 63, 0.81)" class="triangle-float2"></path><path d="M-129.87 663.21 a153.08 153.08 0 1 0 306.16 0 a153.08 153.08 0 1 0 -306.16 0z" fill="rgba(173, 208, 63, 0.81)" class="triangle-float2"></path><path d="M1036.48 616.85 a60.37 60.37 0 1 0 120.74 0 a60.37 60.37 0 1 0 -120.74 0z" fill="rgba(173, 208, 63, 0.81)" class="triangle-float3"></path><path d="M1244.075,919.586C1301.065,920.29,1355.258,894.037,1385.466,845.707C1417.613,794.274,1425.315,729.455,1396.151,676.274C1365.934,621.173,1306.795,583.94,1244.075,587.877C1186.47,591.493,1148.952,642.548,1121.825,693.494C1096.742,740.6,1083.226,795.342,1108.609,842.287C1135.112,891.303,1188.357,918.898,1244.075,919.586" fill="rgba(173, 208, 63, 0.81)" class="triangle-float2"></path><path d="M1268.304,981.232C1332.631,977.625,1380.605,927.479,1410.615,870.467C1438.311,817.851,1440.887,757.206,1414.195,704.074C1384.214,644.393,1335.08,588.427,1268.304,587.182C1199.965,585.907,1146.725,639.186,1112.672,698.45C1078.768,757.456,1062.562,828.526,1095.374,888.146C1129.204,949.615,1198.25,985.161,1268.304,981.232" fill="rgba(173, 208, 63, 0.81)" class="triangle-float1"></path></g><defs><mask id="SvgjsMask1020"><rect width="1280" height="800" fill="#ffffff"></rect></mask><style>
                @keyframes float1 {
                    0%{transform: translate(0, 0)}
                    50%{transform: translate(-10px, 0)}
                    100%{transform: translate(0, 0)}
                }

                .triangle-float1 {
                    animation: float1 5s infinite;
                }

                @keyframes float2 {
                    0%{transform: translate(0, 0)}
                    50%{transform: translate(-5px, -5px)}
                    100%{transform: translate(0, 0)}
                }

                .triangle-float2 {
                    animation: float2 4s infinite;
                }

                @keyframes float3 {
                    0%{transform: translate(0, 0)}
                    50%{transform: translate(0, -10px)}
                    100%{transform: translate(0, 0)}
                }

                .triangle-float3 {
                    animation: float3 6s infinite;
                }
            </style></defs></svg>