<svg width="155" height="64" viewBox="0 0 155 64" fill="none" xmlns="http://www.w3.org/2000/svg">
<path d="M21.7696 60.7936C21.1488 60.3872 31.8592 37.8816 31.4912 36.8928C31.12 35.904 19.7632 32.2976 19.2096 30.56C18.6528 28.8224 41.632 2.6976 42.2368 3.2032C42.8384 3.7088 32.224 26.3648 32.512 27.104C32.8032 27.84 44.4416 31.5968 44.7936 33.4368C45.1488 35.2768 22.3872 61.2 21.7696 60.7936Z" fill="#444444"/>
<path d="M71.581 38.776H78.749V43H66.109V20.536H71.581V38.776ZM89.487 43.256C87.7377 43.256 86.159 42.8827 84.751 42.136C83.3643 41.3893 82.2657 40.3227 81.455 38.936C80.6657 37.5493 80.271 35.928 80.271 34.072C80.271 32.2373 80.6763 30.6267 81.487 29.24C82.2977 27.832 83.407 26.7547 84.815 26.008C86.223 25.2613 87.8017 24.888 89.551 24.888C91.3003 24.888 92.879 25.2613 94.287 26.008C95.695 26.7547 96.8043 27.832 97.615 29.24C98.4257 30.6267 98.831 32.2373 98.831 34.072C98.831 35.9067 98.415 37.528 97.583 38.936C96.7723 40.3227 95.6523 41.3893 94.223 42.136C92.815 42.8827 91.2363 43.256 89.487 43.256ZM89.487 38.52C90.5323 38.52 91.4177 38.136 92.143 37.368C92.8897 36.6 93.263 35.5013 93.263 34.072C93.263 32.6427 92.9003 31.544 92.175 30.776C91.471 30.008 90.5963 29.624 89.551 29.624C88.4843 29.624 87.599 30.008 86.895 30.776C86.191 31.5227 85.839 32.6213 85.839 34.072C85.839 35.5013 86.1803 36.6 86.863 37.368C87.567 38.136 88.4417 38.52 89.487 38.52ZM117.894 20.536V24.92H111.942V43H106.47V24.92H100.518V20.536H117.894ZM126.112 24.92V29.464H133.44V33.688H126.112V38.616H134.4V43H120.64V20.536H134.4V24.92H126.112ZM154.113 20.536V24.92H148.161V43H142.689V24.92H136.737V20.536H154.113Z" fill="#444444"/>
</svg>
