<svg width="233" height="96" viewBox="0 0 233 96" fill="none" xmlns="http://www.w3.org/2000/svg">
<path d="M32.6544 91.1904C31.7232 90.5808 47.7888 56.8224 47.2368 55.3392C46.68 53.856 29.6448 48.4464 28.8144 45.84C27.9792 43.2336 62.448 4.04641 63.3552 4.80481C64.2576 5.56321 48.336 39.5472 48.768 40.656C49.2048 41.76 66.6624 47.3952 67.1904 50.1552C67.7232 52.9152 33.5808 91.8 32.6544 91.1904Z" fill="#F3F6F4"/>
<path d="M107.622 58.664H118.374V65H99.4135V31.304H107.622V58.664ZM134.481 65.384C131.857 65.384 129.489 64.824 127.377 63.704C125.297 62.584 123.649 60.984 122.433 58.904C121.249 56.824 120.657 54.392 120.657 51.608C120.657 48.856 121.265 46.44 122.48 44.36C123.697 42.248 125.361 40.632 127.473 39.512C129.585 38.392 131.953 37.832 134.577 37.832C137.201 37.832 139.569 38.392 141.681 39.512C143.793 40.632 145.457 42.248 146.673 44.36C147.889 46.44 148.497 48.856 148.497 51.608C148.497 54.36 147.873 56.792 146.625 58.904C145.409 60.984 143.729 62.584 141.585 63.704C139.473 64.824 137.105 65.384 134.481 65.384ZM134.481 58.28C136.049 58.28 137.377 57.704 138.465 56.552C139.585 55.4 140.145 53.752 140.145 51.608C140.145 49.464 139.601 47.816 138.513 46.664C137.457 45.512 136.145 44.936 134.577 44.936C132.977 44.936 131.649 45.512 130.593 46.664C129.537 47.784 129.009 49.432 129.009 51.608C129.009 53.752 129.521 55.4 130.545 56.552C131.601 57.704 132.913 58.28 134.481 58.28ZM177.091 31.304V37.88H168.163V65H159.955V37.88H151.027V31.304H177.091ZM189.418 37.88V44.696H200.41V51.032H189.418V58.424H201.85V65H181.21V31.304H201.85V37.88H189.418ZM231.419 31.304V37.88H222.491V65H214.283V37.88H205.355V31.304H231.419Z" fill="#F3F6F4"/>
</svg>
